<svg xmlns="http://www.w3.org/2000/svg" viewBox="0 0 500 78.67"><title>logo</title><path d="M243.21,69.25h3.39a2.42,2.42,0,1,1,0,4.82h-1.74v2.69h-1.65Zm1.65,3.53h1.28c.77,0,1.45-.17,1.45-1.13s-.68-1.12-1.45-1.12h-1.28Z"/><path d="M251.25,71.32h1.42v1h0a1.92,1.92,0,0,1,1.74-1.16,1.11,1.11,0,0,1,.33.05v1.39a2.72,2.72,0,0,0-.54-.05c-1.09,0-1.47.79-1.47,1.75v2.45h-1.49Z"/><path d="M257.76,74.4c0,.95.51,1.38,1.34,1.38a1.23,1.23,0,0,0,1.18-.7h1.31A2.45,2.45,0,0,1,259,76.91,2.66,2.66,0,0,1,256.26,74,2.73,2.73,0,0,1,259,71.17c1.85,0,2.75,1.56,2.64,3.23Zm2.43-.95c-.14-.76-.46-1.16-1.19-1.16a1.18,1.18,0,0,0-1.24,1.16Z"/><path d="M264.91,75c0,.65.56.92,1.15.92.43,0,1-.17,1-.69s-.62-.61-1.69-.84c-.86-.19-1.72-.5-1.72-1.45,0-1.39,1.2-1.75,2.37-1.75s2.28.4,2.4,1.74H267c0-.58-.48-.74-1-.74-.34,0-.83.06-.83.5s.84.61,1.69.81,1.72.52,1.72,1.53c0,1.43-1.24,1.89-2.48,1.89s-2.49-.47-2.56-1.91Z"/><path d="M271.81,74.4c0,.95.51,1.38,1.34,1.38a1.23,1.23,0,0,0,1.18-.7h1.31a2.45,2.45,0,0,1-2.55,1.83A2.66,2.66,0,0,1,270.32,74a2.73,2.73,0,0,1,2.78-2.87c1.85,0,2.75,1.56,2.64,3.23Zm2.43-.95c-.14-.76-.46-1.16-1.19-1.16a1.18,1.18,0,0,0-1.24,1.16Z"/><path d="M277.8,71.32h1.42v.76h0a1.94,1.94,0,0,1,1.66-.9c1.59,0,2,.89,2,2.24v3.35h-1.49V73.69c0-.89-.26-1.34-1-1.34s-1.16.45-1.16,1.56v2.85H277.8Z"/><path d="M287.12,71.32h1.09v1h-1.09V75c0,.5.13.63.63.63a2.36,2.36,0,0,0,.46,0v1.17a5.79,5.79,0,0,1-.87.05c-.92,0-1.71-.21-1.71-1.29V72.32h-.9v-1h.9V69.69h1.49Z"/><path d="M291.34,74.4c0,.95.51,1.38,1.34,1.38a1.23,1.23,0,0,0,1.18-.7h1.31a2.45,2.45,0,0,1-2.55,1.83A2.66,2.66,0,0,1,289.85,74a2.73,2.73,0,0,1,2.78-2.87c1.85,0,2.75,1.56,2.64,3.23Zm2.43-.95c-.14-.76-.46-1.16-1.19-1.16a1.18,1.18,0,0,0-1.24,1.16Z"/><path d="M301.22,76.06h0a1.8,1.8,0,0,1-1.65.84c-1.64,0-2.44-1.41-2.44-2.91s.81-2.82,2.41-2.82a1.87,1.87,0,0,1,1.61.81h0V69.25h1.49v7.51h-1.42Zm-1.3-3.77c-1,0-1.31.84-1.31,1.74s.39,1.75,1.31,1.75,1.28-.86,1.28-1.76S300.88,72.3,299.91,72.3Z"/><path d="M309.05,69.25h1.49V72h0a2,2,0,0,1,1.71-.81c1.08,0,2.25.87,2.25,2.86s-1.17,2.87-2.25,2.87a1.88,1.88,0,0,1-1.79-.84h0v.69h-1.42Zm2.71,3c-.88,0-1.27.83-1.27,1.75s.39,1.73,1.27,1.73S313,74.95,313,74,312.65,72.3,311.77,72.3Z"/><path d="M319.35,77.44a1.71,1.71,0,0,1-1.87,1.23,8.89,8.89,0,0,1-.92-.05V77.39a7.93,7.93,0,0,0,.87.05.7.7,0,0,0,.52-1L316,71.32h1.6L318.86,75h0l1.19-3.72h1.55Z"/><path d="M329.63,69.25h1.69l2.81,7.51h-1.71l-.57-1.67H329l-.59,1.67h-1.67Zm-.16,4.61h1.95l-.95-2.76h0Z"/><path d="M336,69.25h2.32L340,74.41h0l1.66-5.16h2.32v7.51h-1.55V71.44h0l-1.84,5.32h-1.27l-1.84-5.27h0v5.27H336Z"/><path d="M346.69,69.25h5.62v1.39h-4v1.61H352v1.28h-3.64v1.84h4v1.39h-5.7Z"/><path d="M354.69,69.25h1.65v7.51h-1.65Z"/><path d="M107,21.85a11,11,0,0,1,3.32-2.73,10,10,0,0,1,5-1.18,9.78,9.78,0,0,1,6.59,2.33,11.88,11.88,0,0,1,3.71,5.43h8.6A20.4,20.4,0,0,0,128,14.45a17.72,17.72,0,0,0-12.65-4.71,17.74,17.74,0,0,0-10.65,3.1,20.19,20.19,0,0,0-6.18,6.61,16.6,16.6,0,0,0-1.85,5.17,90.66,90.66,0,0,0-.52,12.52,90.65,90.65,0,0,0,.52,12.52,16.59,16.59,0,0,0,1.85,5.17,19.57,19.57,0,0,0,6.18,6.59,18,18,0,0,0,10.65,3,19.42,19.42,0,0,0,12.11-4q5.21-4,6.79-11.5h-8.6q-3.51,7.35-10.3,7.35a10.15,10.15,0,0,1-5-1.16A10.28,10.28,0,0,1,107,52.39a11.1,11.1,0,0,1-2.16-4.47q-.57-2.47-.57-10.78t.57-10.74A11.73,11.73,0,0,1,107,21.85Z"/><path d="M158.62,25.25a12,12,0,0,0-10,4.54h-.15v-4.1h-7.72V64h7.72V41q0-4.21,2.31-6.11A7.9,7.9,0,0,1,156,33a8.43,8.43,0,0,1,5.1,1.88l5.58-6.65A12.87,12.87,0,0,0,158.62,25.25Z"/><path d="M182.4,25.25a16.47,16.47,0,0,0-10.69,4.28Q166.6,33.82,166.6,45q0,11.82,5.54,15.64A19.46,19.46,0,0,0,191,63a16.46,16.46,0,0,0,6.41-4.74l-5.58-4.76a11.51,11.51,0,0,1-8.42,3.69,9.3,9.3,0,0,1-6.55-2.36q-2.57-2.36-2.57-7.09h23.85V41.42q0-7.42-4.73-11.8A15.74,15.74,0,0,0,182.4,25.25Zm-8.09,16.17a9.35,9.35,0,0,1,2.38-6.61,7.7,7.7,0,0,1,5.7-2.29A7.6,7.6,0,0,1,188,34.81a9.66,9.66,0,0,1,2.44,6.61Z"/><path d="M227.37,28q-4.25-2.81-11.22-2.73-8.31-.15-12.59,5.58l5.91,4.65a5.41,5.41,0,0,1,2.62-2.4,14.2,14.2,0,0,1,4.43-.59q7.68-.15,7.64,4.95v4.06H213.78q-6,.07-9,3.32a11.28,11.28,0,0,0-3.06,8,10.76,10.76,0,0,0,3.54,8.31q3.25,3.25,9.6,3.4a15.67,15.67,0,0,0,6-1A6.24,6.24,0,0,0,224,60.77h.15v3.4h7.46V37.92Q231.54,30.94,227.37,28Zm-3.21,22.67q0,4.32-1.77,5.54t-6.65,1.14q-3.73,0-5.35-1.51a4.2,4.2,0,0,1-1.7-3.32q-.07-4.47,6.5-4.65h9Z"/><polygon points="250.78 17.77 243.06 17.77 243.06 25.69 234.78 25.69 234.78 31.6 243.06 31.6 243.06 64.06 250.78 64.06 250.78 31.6 259.41 31.6 259.41 25.69 250.78 25.69 250.78 17.77"/><path d="M287.66,30.16a17.79,17.79,0,0,0-4.39-3.32,17.41,17.41,0,0,0-14.53,0,17.89,17.89,0,0,0-4.38,3.32,14.62,14.62,0,0,0-3.18,5.46,32.64,32.64,0,0,0-1,9.19,33.17,33.17,0,0,0,1,9.3,14.62,14.62,0,0,0,3.18,5.46,16.75,16.75,0,0,0,4.38,3.32,17.79,17.79,0,0,0,14.53,0,16.66,16.66,0,0,0,4.39-3.32,14.61,14.61,0,0,0,3.18-5.46,33.17,33.17,0,0,0,1-9.3,32.63,32.63,0,0,0-1-9.19A14.62,14.62,0,0,0,287.66,30.16Zm-4,20.6A9.94,9.94,0,0,1,282.24,54a7.15,7.15,0,0,1-6.2,2.81q-4.25,0-6.2-2.81a8.67,8.67,0,0,1-1.5-3.23,30.79,30.79,0,0,1-.39-5.93,29.65,29.65,0,0,1,.39-5.8,9,9,0,0,1,1.5-3.25q2-2.81,6.2-2.81a7.15,7.15,0,0,1,6.2,2.81A10.37,10.37,0,0,1,283.7,39a27.62,27.62,0,0,1,.42,5.87A27.62,27.62,0,0,1,283.7,50.76Z"/><path d="M316.24,25.25a12,12,0,0,0-10,4.54h-.15v-4.1h-7.72V64h7.72V41q0-4.21,2.31-6.11a7.9,7.9,0,0,1,5.15-1.9,8.44,8.44,0,0,1,5.1,1.88l5.58-6.65A12.87,12.87,0,0,0,316.24,25.25Z"/><path d="M345.19,41.2l-6.35-.44q-2.92-.22-4-1.29a3.25,3.25,0,0,1-1.07-2.33,4.28,4.28,0,0,1,1.44-3.3q1.44-1.31,5.13-1.31a14.52,14.52,0,0,1,5.54,1,25.92,25.92,0,0,1,4.73,2.55l4.76-5.61A23.59,23.59,0,0,0,349,26.67a23.33,23.33,0,0,0-8.6-1.42,16.83,16.83,0,0,0-10.19,3q-4.1,3-4.1,8.82a9.75,9.75,0,0,0,3.14,7.72,13.1,13.1,0,0,0,7.9,3.14l6.79.63q4.69.41,4.69,3.77A4,4,0,0,1,346.45,56,10.73,10.73,0,0,1,341,57.23a16.65,16.65,0,0,1-12.07-4.91l-5.39,5.32a24,24,0,0,0,16.87,6.83,19.9,19.9,0,0,0,11.26-3.06,9.85,9.85,0,0,0,4.62-8.71,12.2,12.2,0,0,0-2.58-7.81Q351.13,41.61,345.19,41.2Z"/><polygon points="413.35 33.26 393.18 33.26 393.18 10.22 385.02 10.22 385.02 64.02 393.18 64.02 393.18 40.54 413.35 40.54 413.35 64.02 421.51 64.02 421.51 10.22 413.35 10.22 413.35 33.26"/><path d="M452.05,48.55a8.21,8.21,0,0,1-2.16,6.07,7.29,7.29,0,0,1-5.37,2.16A7.43,7.43,0,0,1,439,54.62a8.21,8.21,0,0,1-2.16-6.07V25.69h-7.72V51.17q0,6.54,4.15,9.91a13.61,13.61,0,0,0,8.7,3.38,11.94,11.94,0,0,0,9.9-4.5h.15V64h7.72V25.69h-7.72Z"/><path d="M499.43,35.05a11.71,11.71,0,0,0-2.16-4.82,13.69,13.69,0,0,0-4.21-3.56A12.24,12.24,0,0,0,487,25.25a16.62,16.62,0,0,0-6.54,1.26,20.44,20.44,0,0,0-4.52,3.29V10.22h-7.72V64h7.72V60c2.66,3,7.12,4.43,11.06,4.43a12.5,12.5,0,0,0,6.06-1.38,13,13,0,0,0,4.21-3.56,11.42,11.42,0,0,0,2.16-4.82,57,57,0,0,0,.57-9.88A55.7,55.7,0,0,0,499.43,35.05Zm-8.23,18q-1.09,3.73-6.52,3.73c-3.62,0-7-1.29-7.67-3.88a30.23,30.23,0,0,1-1.07-8.09,29.82,29.82,0,0,1,1.07-8c.71-2.58,4-3.88,7.67-3.88s5.79,1.24,6.52,3.73a28.88,28.88,0,0,1,1.09,8.12A29.3,29.3,0,0,1,491.19,53.05Z"/><path d="M360.78,10.22a4.69,4.69,0,0,0-.38,9.36,17.85,17.85,0,0,1,.4,7.43c5.43-7.05,4.68-12.09,4.68-12.09A4.7,4.7,0,0,0,360.78,10.22Z"/><rect width="74.63" height="74.63" rx="7.08" ry="7.08"/><path d="M57,29.44a21.13,21.13,0,0,0-1.21-3l-1.29.76A17.22,17.22,0,0,1,56,29.83Z" style="fill:#fff"/><path d="M49.59,18.78a26.78,26.78,0,0,0-2.84-1.85l-1.5,3.24a23.92,23.92,0,0,1,2.63,1.18Z" style="fill:#fff"/><path d="M54.13,23.63a22.41,22.41,0,0,0-2.07-2.58L50.33,23a19.76,19.76,0,0,1,2.24,1.95Z" style="fill:#fff"/><path d="M42.53,19.35l1.1-3.79-1-.3a14.94,14.94,0,0,0-2.38-.54l-.55,4.22a15.29,15.29,0,0,1,2,.27Z" style="fill:#fff"/><path d="M34.63,19.11a16.35,16.35,0,0,1,2.31-.24l-.09-4.44a20.83,20.83,0,0,0-2.87.2c-.19,0-.39.06-.58.09l.77,4.48Z" style="fill:#fff"/><path d="M58,30.74a6.54,6.54,0,0,0-1.24,13,17.71,17.71,0,0,1-2.4,4.77A19.75,19.75,0,0,1,48.45,54a21.18,21.18,0,0,1-8.91,2.86c-.41.05-.83,0-1.25,0s-.88,0-1.22,0a18.84,18.84,0,0,1-2.63-.28c-.33,0-.66-.12-1-.19A4.46,4.46,0,0,0,26.11,53q-.6-.45-1.18-.93a20.89,20.89,0,0,1-3.58-4.18,20.57,20.57,0,0,1-2.26-5.07,21.12,21.12,0,0,1-.7-5.52,21.81,21.81,0,0,1,.31-2.81,19.84,19.84,0,0,1,.65-2.63A19.56,19.56,0,0,1,21.81,27a21.89,21.89,0,0,1,1.6-1.92,5.94,5.94,0,1,0-2.58-3.59,25.67,25.67,0,0,0-2.48,3.21,24.76,24.76,0,0,0-2.67,6,23.18,23.18,0,0,0-.64,3.3,11.89,11.89,0,0,0-.14,1.64l0,1.61a24.5,24.5,0,0,0,1.09,6.48,23.73,23.73,0,0,0,2.87,5.81,23.8,23.8,0,0,0,4.32,4.64c.49.38,1,.74,1.51,1.09a4.47,4.47,0,0,0,8.18,3.39c.45.08.89.15,1.35.2A21,21,0,0,0,37,59.1,11.88,11.88,0,0,0,38.4,59c.46,0,.93-.05,1.38-.13a21.22,21.22,0,0,0,9.4-3.84,22.27,22.27,0,0,0,5.7-6.24,21.38,21.38,0,0,0,2.29-5.05,6.54,6.54,0,1,0,.84-13Z" style="fill:#fff"/></svg>